#!OML:ASF F:\VICON\USERDATA\INSTALL\rory3\rory3.ASF
:FULLY-SPECIFIED
:DEGREES
36
root 0.5167660850700119 17.581857341347252 -13.985017053247883 5.822994520946722 -0.9831506849197947 -1.658088924315513
lfemur -11.108485655445083 8.417586873399097 -18.50309056863269
ltibia 17.97063403116652
lfoot -11.83426426711582 1.5604395818492862
ltoes -8.002404356416775
rfemur -11.74022745153634 -3.5205479497958434 20.082675186418502
rtibia 20.567432568893324
rfoot -14.05603700721075 -1.871709415539255
rtoes 7.070934237778746
lowerback -0.3365186820961812 -0.2650319328731211 0.681861251269288
upperback 4.0742701087629 -0.43159099519741073 1.6782751201308623
thorax 4.420784797226285 -0.22520728975396748 1.347720941842251
lowerneck -16.00181470789584 0.6620392923037245 -2.191072434650505
upperneck 26.15117929520757 1.5526049858885234 -0.04677312128177291
head 11.135247967468526 0.4989457386220406 0.5871378266877836
lclavicle 5.762204478774009e-16 -3.101521251948576e-16
lhumerus -17.275012082653507 -7.791900632152408 91.27431886545737
lradius 19.58892271676602
lwrist 4.307203968007906
lhand -25.060410044090073 -4.501010813501504
lfingers 7.125019999999998
lthumb 1.4403025730540024 25.51445903367413
rclavicle 5.758857611259369e-16 -3.1120296525369823e-16
rhumerus -18.65438559464752 -10.823364138377249 -84.72267681496918
rradius 24.188164457205026
rwrist 32.13098596363984
rhand -19.41064843416376 -26.262534116829578
rfingers 7.125019999999998
rthumb 6.901969858896399 -56.14017803823547
37
root 0.5139087328068981 17.617231194899592 -14.112099183942405 5.871805543708464 -0.9281350643282772 -1.6705546409686705
lfemur -11.85415717770803 8.452527505161513 -18.51803997872186
ltibia 18.31417427714789
lfoot -11.730468652486373 1.4680714040348724
ltoes -8.011440169730916
rfemur -12.258480148928703 -3.4972281023907965 20.1308251405953
rtibia 21.042837015124306
rfoot -14.128137950928387 -1.8931446229582367
rtoes 7.004117359604195
lowerback 0.4053853783047954 -0.25736136663848436 0.6995046009180151
upperback 4.124667378551365 -0.41444968689615397 1.6844356505563713
thorax 4.103854221716539 -0.21653280157091276 1.3657464230027263
lowerneck -15.997271540563919 0.6615309314584755 -2.1552854074505476
upperneck 25.72800913177582 1.5252583299752422 -0.08126480642310284
head 10.987664613078636 0.5083108869828277 0.5731871756681891
lclavicle 5.762313814186201e-16 -3.101356820937695e-16
lhumerus -17.43359589204389 -7.694530805559161 91.35775717878869
lradius 19.72869452576556
lwrist 4.784566923365861
lhand -25.210516532934744 -4.729629064305527
lfingers 7.125019999999998
lthumb 1.277320792439489 25.312329278449774
rclavicle 5.758606805293931e-16 -3.112410626565577e-16
rhumerus -18.849217382396613 -11.478166899269528 -84.53982981841193
rradius 24.060372931734243
rwrist 32.126231212826745
rhand -19.378192575620893 -26.226180066232534
rfingers 7.125019999999998
rthumb 6.921647445049541 -56.11532799503177
38
root 0.5120039069104083 17.652656381503636 -14.231797852037891 5.947873041570259 -0.9251879644908619 -1.6596739291208968
lfemur -12.618783473335156 8.509922508424676 -18.551741512634994
ltibia 18.58551372063158
lfoot -11.599601233616113 1.3793067402058767
ltoes -8.004390170772163
rfemur -12.940001491535362 -3.4690748537732086 20.1515630812834
rtibia 21.566073134197197
rfoot -14.191578523598027 -1.8898064760338098
rtoes 6.949856732391607
lowerback 1.2193296812075616 -0.2330034311719919 0.7011693777121657
upperback 4.197863429707507 -0.37713409884804205 1.6814236919693997
thorax 3.801238944583589 -0.20045084543062358 1.386660065582217
lowerneck -15.993770357247898 0.6627943303851751 -2.116289225013237
upperneck 25.262107531901236 1.5060956584961047 -0.12059532518704179
head 10.813351930969569 0.5177022290893386 0.5572996798589805
lclavicle 5.762374300587493e-16 -3.101304028754411e-16
lhumerus -17.648810649697133 -7.580271366087328 91.45591283690571
lradius 19.901108346469133
lwrist 5.342162794797106
lhand -25.367212663023096 -4.928260616449548
lfingers 7.125019999999998
lthumb 1.1138387365752154 25.132804445998502
rclavicle 5.758437919317211e-16 -3.11266788795313e-16
rhumerus -19.111757808449976 -12.314866627721036 -84.30996663213094
rradius 23.836177660696087
rwrist 32.24208525305574
rhand -19.33414884794019 -26.18103255267267
rfingers 7.125019999999998
rthumb 6.947917804676308 -56.083824493286485
39
root 0.5111741950257551 17.684194691688127 -14.342672179526692 6.032846853948154 -0.9610215132062236 -1.7018522785599441
lfemur -13.372075700990068 8.575860629140548 -18.538126326655757
ltibia 18.827180444788098
lfoot -11.453445474947161 1.3114005194548937
ltoes -8.031666271435416
rfemur -13.73028675668202 -3.4366629401034556 20.223446186526036
rtibia 22.057751666854195
rfoot -14.244658948479172 -1.8606774829208763
rtoes 6.905697399672595
lowerback 2.0263371421395204 -0.20490569344108078 0.7330836897114488
upperback 4.293495306472566 -0.3348901385006457 1.6874569553972543
thorax 3.544006742654452 -0.18093054302251815 1.3972789139166373
lowerneck -15.988106978323612 0.6717055211863203 -2.074822796078425
upperneck 24.750026262196528 1.499627510763504 -0.1724287364824988
head 10.61647737602842 0.5292134489787387 0.5385642208747301
lclavicle 5.762063889431441e-16 -3.1017827342686276e-16
lhumerus -17.91179743002053 -7.462915638082489 91.56194937886487
lradius 20.07620611465836
lwrist 5.916076788783452
lhand -25.524186670437803 -5.111770804945302
lfingers 7.125019999999998
lthumb 0.9514508210728541 24.965777115934177
rclavicle 5.757798467946777e-16 -3.11363705693098e-16
rhumerus -19.44045738470091 -13.232974188128482 -84.05229883418538
rradius 23.555604059073097
rwrist 32.45587671822974
rhand -19.27656791905672 -26.11967481435201
rfingers 7.125019999999998
rthumb 6.985724141713753 -56.03423680822362
40
root 0.5098234813419267 17.71379698313239 -14.465928443364279 6.196609438926348 -0.9963723562409739 -1.6927202223371685
lfemur -14.144215719153134 8.640178917333634 -18.573312828335578
ltibia 19.07541853459297
lfoot -11.303938122458025 1.2495138854901744
ltoes -8.05936946017583
rfemur -14.656398764546191 -3.4094611890674966 20.244600140024932
rtibia 22.56107858138099
rfoot -14.286970736171066 -1.8172970553452983
rtoes 6.879426169838643
lowerback 2.841820358819469 -0.18353904262180876 0.7283009041325138
upperback 4.4008704516935895 -0.3039562460200294 1.6807484458927857
thorax 3.3337762414976484 -0.16851719961203865 1.414591494261914
lowerneck -15.983294954504807 0.6874615521232971 -2.0358817906468807
upperneck 24.222350205299655 1.506386324207875 -0.22791056130448306
head 10.418022699784533 0.5437254924723798 0.5218525731276579
lclavicle 5.761821735039038e-16 -3.102124329411982e-16
lhumerus -18.22464109512512 -7.362109616283281 91.66480709775404
lradius 20.240765555274702
lwrist 6.443962399238838
lhand -25.668348279859458 -5.249043652401449
lfingers 7.125019999999998
lthumb 0.7963738930274161 24.82316937958423
rclavicle 5.757257054730843e-16 -3.1144595116755413e-16
rhumerus -19.818558613429495 -14.175553951485668 -83.7899292360177
rradius 23.250369970277543
rwrist 32.75281347350071
rhand -19.207031265508608 -26.051773175695583
rfingers 7.125019999999998
rthumb 7.034523920104537 -55.977747737817786
41
root 0.5088090327092138 17.739159758537056 -14.61043624168779 6.415410920218237 -1.001366549680711 -1.7036029264815955
lfemur -14.927820624529682 8.714799492951244 -18.59596876389815
ltibia 19.36797432185802
lfoot -11.17657749779171 1.1822366273430385
ltoes -8.126482929894166
rfemur -15.631609421789637 -3.3951050552516198 20.285669994270627
rtibia 23.033459108720532
rfoot -14.332209409436194 -1.7859517273580985
rtoes 6.852320636218762
lowerback 3.644128802258029 -0.17567181286751446 0.7385965025524784
upperback 4.5210701921191045 -0.2916913693497193 1.6809935668963643
thorax 3.1639284745088485 -0.1631116029013015 1.426578172617693
lowerneck -15.974629129313627 0.7037092021752753 -2.004708470864973
upperneck 23.687303913349396 1.520023140847434 -0.29531016188533654
head 10.217133006312064 0.558660583263427 0.5028788618782897
lclavicle 5.762504925223019e-16 -3.1010313604729566e-16
lhumerus -18.581466953809844 -7.2962658730061865 91.76116792216861
lradius 20.394219462610963
lwrist 6.935082103962897
lhand -25.803938540076242 -5.361201483900325
lfingers 7.125019999999998
lthumb 0.6575047557302931 24.715337570443886
rclavicle 5.756979971848599e-16 -3.1148807957521187e-16
rhumerus -20.255290379021716 -15.08622460349729 -83.51960828978702
rradius 22.938934525651078
rwrist 33.10077172024978
rhand -19.12606071612835 -25.97269420659073
rfingers 7.125019999999998
rthumb 7.09414743649571 -55.9093053624336
42
root 0.5084369671842415 17.756146515993965 -14.769332830463144 6.7522511991734255 -1.0459203164245026 -1.714383758567766
lfemur -15.844265816778977 8.820632757317135 -18.620892863514086
ltibia 19.751210743269368
lfoot -11.081358472784109 1.1303063414777004
ltoes -8.24678049287797
rfemur -16.80739524197663 -3.3607383893926075 20.324890044060307
rtibia 23.59489111694848
rfoot -14.3996684711007 -1.7526217540745754
rtoes 6.822804866588505
lowerback 4.467165988087673 -0.1574951942196201 0.7495537100532461
upperback 4.645394349581618 -0.266493669794452 1.6775081859992873
thorax 3.0140382210150576 -0.15241926287909852 1.4338924153103458
lowerneck -15.95454424347654 0.7204289422812626 -1.9798351678214616
upperneck 23.13198144431258 1.5375702717086603 -0.3677450427971682
head 10.008006864652847 0.5729625734326742 0.4823354827003185
lclavicle 5.762506759065585e-16 -3.100976120399763e-16
lhumerus -18.98995556080629 -7.217670021125084 91.79907039646845
lradius 20.525578454761497
lwrist 7.394300370630526
lhand -25.91296668205538 -5.436042059456236
lfingers 7.125019999999998
lthumb 0.541104361267817 24.64149844404321
rclavicle 5.756856785692836e-16 -3.1150685742574554e-16
rhumerus -20.72313361317911 -15.929348040918839 -83.24506909211253
rradius 22.63224451985775
rwrist 33.50681637114229
rhand -19.03234955924773 -25.887210558158138
rfingers 7.125019999999998
rthumb 7.161719014949994 -55.83435662237112
